<?xml version="1.0" encoding="utf-8"?>
<!-- Generator: Adobe Illustrator 16.0.4, SVG Export Plug-In . SVG Version: 6.00 Build 0)  -->
<!DOCTYPE svg PUBLIC "-//W3C//DTD SVG 1.1//EN" "http://www.w3.org/Graphics/SVG/1.1/DTD/svg11.dtd">
<svg version="1.1" id="Layer_1" xmlns="http://www.w3.org/2000/svg" xmlns:xlink="http://www.w3.org/1999/xlink" x="0px" y="0px"
	 width="132px" height="40px" viewBox="0 0 132 40" enable-background="new 0 0 132 40" xml:space="preserve">
<g>
	<path fill-rule="evenodd" clip-rule="evenodd" fill="#FFFFFF" d="M94.188,29.635c0.187,0.266,0.468,0.484,0.841,0.661v0.835h-6.173
		l-0.363-1.23l-0.157-1.312c-0.782,0.844-1.69,1.569-2.727,2.163c-1.224,0.705-2.611,1.058-4.166,1.058
		c-1.971,0-3.601-0.554-4.894-1.67c-1.286-1.129-1.931-2.723-1.931-4.785c0-2.664,1.034-4.595,3.105-5.792
		c1.141-0.651,2.813-1.113,5.018-1.388l1.951-0.24c1.051-0.131,1.809-0.3,2.271-0.505c0.81-0.34,1.214-0.878,1.214-1.612
		c0-0.887-0.311-1.494-0.933-1.825c-0.628-0.348-1.547-0.521-2.753-0.521c-1.364,0-2.328,0.333-2.883,0.999
		c-0.413,0.491-0.687,1.154-0.818,1.984h-5.479c0.121-1.896,0.651-3.455,1.594-4.678c1.516-1.912,4.104-2.867,7.769-2.867
		c2.387,0,4.502,0.471,6.349,1.412c1.862,0.943,2.792,2.723,2.792,5.34l0.032,12.463C93.894,28.867,94.007,29.371,94.188,29.635z
		 M116.657,16.835c-0.402,1.036-0.602,2.35-0.602,3.941c0,2.525,0.678,4.296,2.032,5.313c0.811,0.601,1.761,0.9,2.853,0.9
		c1.603,0,2.821-0.612,3.659-1.833c0.84-1.218,1.257-2.844,1.257-4.876c0-1.674-0.386-3.155-1.157-4.438
		c-0.772-1.288-2.02-1.934-3.744-1.934C118.872,13.909,117.439,14.883,116.657,16.835z M116.078,12.636
		c0.612-0.942,1.271-1.686,1.969-2.23c1.261-0.97,2.768-1.457,4.521-1.457c2.551,0,4.715,0.938,6.495,2.811
		c1.764,1.873,2.645,4.619,2.645,8.24c0,3.822-0.862,6.738-2.586,8.743c-1.741,2.005-3.974,3.008-6.694,3.008
		c-1.735,0-3.174-0.432-4.314-1.295c-0.64-0.482-1.257-1.18-1.851-2.095v11.314h-5.62V9.431h5.437V12.636z M102.171,13.215
		c0.881-1.448,1.646-2.438,2.298-2.966c1.058-0.894,2.437-1.339,4.141-1.339c0.065,0,0.155,0.007,0.271,0.025
		c0.15,0,0.308,0.005,0.479,0.015v5.819l-1.628-0.1c-2.286,0-3.82,0.743-4.603,2.224c-0.435,0.838-0.654,2.127-0.654,3.87v10.369
		h-5.718v-21.7h5.413V13.215z M87.064,21.142l-2.826,0.608c-1.208,0.216-2.077,0.477-2.613,0.779
		c-0.886,0.517-1.331,1.322-1.331,2.412c0,0.971,0.275,1.673,0.818,2.107c0.54,0.423,1.203,0.636,1.983,0.636
		c1.252,0,2.396-0.357,3.431-1.074c1.047-0.715,1.589-2.021,1.63-3.918v-2.115L87.064,21.142z M61.685,9.61
		c1.081-0.505,2.214-0.76,3.405-0.76c1.329,0,2.537,0.232,3.628,0.696c1.101,0.466,1.996,1.179,2.687,2.133
		c0.595,0.808,0.959,1.646,1.097,2.51c0.133,0.849,0.2,2.243,0.2,4.182v12.759h-5.794V17.908c0-1.167-0.201-2.11-0.603-2.825
		c-0.502-1.008-1.476-1.515-2.925-1.515c-1.487,0-2.614,0.506-3.381,1.515c-0.771,0.996-1.156,2.423-1.156,4.279v11.769h-5.679
		V1.886h5.679V12.24C59.663,10.978,60.61,10.102,61.685,9.61z"/>
	<!-- White background rectangle for the red section with cutouts -->
	<rect x="0" y="0" width="50" height="31.065" fill="#FFFFFF"/>
	<polygon fill="#ED2224" points="20.337,19.43 21.76,14.091 19.007,14.091 17.57,19.43 	"/>
	<polygon fill="#ED2224" points="16.536,23.246 14.428,31.065 17.221,31.065 19.313,23.246 	"/>
	<path fill="#ED2224" d="M50.312,27.135c-0.396,1.02-1.019,1.929-1.925,2.7c-0.612,0.521-1.396,0.909-2.269,1.23h4.194V27.135z"/>
	<path fill="#ED2224" d="M30.947,24.205h5.753c0.122,1.008,0.381,1.725,0.778,2.15c0.704,0.754,2.011,1.133,3.918,1.133
		c1.127,0,2.018-0.167,2.668-0.498c0.667-0.329,1.001-0.828,1.001-1.496c0-0.631-0.269-1.117-0.803-1.453
		c-0.529-0.33-2.506-0.899-5.934-1.712c-2.468-0.611-4.205-1.375-5.213-2.288c-1.01-0.903-1.514-2.205-1.514-3.901
		c0-2.005,0.79-3.724,2.372-5.156c1.576-1.451,3.79-2.173,6.645-2.173c2.711,0,4.923,0.544,6.637,1.634
		c1.712,1.075,2.694,2.94,2.943,5.594h-5.671c-0.084-0.732-0.29-1.309-0.618-1.735c-0.624-0.771-1.695-1.156-3.209-1.156
		c-1.232,0-2.109,0.192-2.626,0.578c-0.529,0.386-0.794,0.837-0.794,1.357c0,0.65,0.277,1.12,0.835,1.414
		c0.557,0.306,2.534,0.832,5.934,1.576c2.254,0.53,3.944,1.332,5.074,2.405c0.523,0.512,0.912,1.086,1.19,1.715V0H0v31.065h9.946
		l2.119-7.819H8.04l1.025-3.816h4.025l1.438-5.339h-4.043l1.036-3.818h4.042l2.188-8.05h4.456l-2.173,8.05h2.75l2.158-8.05h4.471
		l-2.148,8.05h4.044l-1.037,3.818H26.23l-1.436,5.339h4.068l-1.037,3.816h-4.04l-2.11,7.819h14.148
		c-0.941-0.344-1.776-0.772-2.426-1.347C31.765,28.271,30.947,26.433,30.947,24.205z"/>
</g>
</svg>